<svg xmlns="http://www.w3.org/2000/svg" xmlns:xlink="http://www.w3.org/1999/xlink" width="100" height="100" viewBox="0 0 100 100"><g><g transform="translate(50 50) scale(0.69 0.69) rotate(0) translate(-50 -50)" style="fill:#ffffff"><svg fill="#ffffff" xmlns="http://www.w3.org/2000/svg" xmlns:xlink="http://www.w3.org/1999/xlink" version="1.1" x="0px" y="0px" viewBox="0 0 100 100" style="enable-background:new 0 0 100 100;" xml:space="preserve"><style type="text/css">
	.st0{fill:#ffffff;}
</style><path class="st0" d="M20,62.3c0-5.3,0-10.7,0-16c0-3.8-0.1-7.3-2.4-10.9c-4.1-6.3,0.4-14.7,8-16c1.8-0.3,2.9-1,3.9-2.4  c2-2.8,5-4.1,8.5-3.9c1.6,0.1,2.7-0.2,4-1.1c6.7-4.4,15.3-1.9,18.8,5.4c0.6,1.2,1.2,2.1,2.7,2.7c7.6,3,9.6,11.9,4.2,18.1  c-0.6,0.7-1.9,1.1-1.3,2.2c0.5,1,1.7,0.4,2.6,0.4c2.2,0.1,4.4,0,6.6,0.2c4.8,0.6,8.1,4,8.2,8.8c0.2,6.5,0.2,13,0,19.5  c-0.1,5.1-3.9,8.6-9.2,8.9c-2.1,0.1-4.2,0.1-6.3,0c-1.6-0.1-2.4,0.3-2.1,2c0,0.1,0,0.2,0,0.3c-0.2,9.5-0.4,9.8-10.1,9.8  c-9.9,0-19.7,0-29.6,0c-4.9,0-6.6-1.7-6.6-6.6C19.9,76.5,20,69.4,20,62.3z M45.9,35.4C45.9,35.4,45.9,35.4,45.9,35.4  c4.5,0,9,0.1,13.5-0.1c3.1-0.1,5.1-2.2,5.1-4.9c0-2.7-1.7-4.7-4.6-4.9c-2.8-0.2-3.7-1.7-4.3-4.1c-1.3-5.4-7.3-7.2-11.2-3.4  c-1.8,1.8-3.5,2.2-5.9,1.4c-2.2-0.7-4.2,0.3-4.7,2.5c-0.8,3.4-2.5,4.5-5.9,3.7c-2-0.5-3.7,0.6-4.8,2.3c-1,1.6-1.4,3.6,0,5  c1.5,1.6,1.5,3.3,1.5,5.2c0,2.3,0,4.6,0,6.9c0,1.9,0.9,3.3,2.9,3.4c2.2,0.1,3.2-1.3,3.3-3.4c0.1-2.3,0.2-4.6,0-6.9  c-0.2-2.3,0.7-2.8,2.8-2.7C37.7,35.6,41.8,35.4,45.9,35.4z M66.3,59.3c0,1.3,0,2.5,0,3.8c0,6.9,0,6.8,7,6.6c1.7-0.1,2.1-0.6,2.1-2.2  c-0.1-3.8,0-7.5,0-11.3c0-7.1,0-7.1-7.1-6.9c-1.8,0-2,0.7-2,2.2C66.4,54.1,66.3,56.7,66.3,59.3z"></path></svg></g></g></svg>