<svg xmlns="http://www.w3.org/2000/svg" xmlns:xlink="http://www.w3.org/1999/xlink" width="100" height="100" viewBox="0 0 100 100"><g><g transform="translate(50 50) scale(0.69 0.69) rotate(0) translate(-50 -50)" style="fill:#1e8eff"><svg fill="#1e8eff" xmlns="http://www.w3.org/2000/svg" xmlns:xlink="http://www.w3.org/1999/xlink" version="1.1" x="0px" y="0px" viewBox="0 0 100 100" enable-background="new 0 0 100 100" xml:space="preserve"><g><path fill="#1e8eff" d="M85.5,18.6c-1.9-2.5-5.1-3.6-7.9-3c-7.7,1.9-22.1,7.1-39.4,21.1c-3.8-1.1-14-3.3-21.9,2.8   c-1.2,0.9-1.9,2.2-2,3.7c-0.1,1.6,0.5,3.2,1.7,4.4l11.6,7.7c0,0,0,0,0,0c0.2,0.2,0.3,0.5,0.5,0.7l6.7,6.7c-0.8,1.4-0.7,3.1,0.4,4.3   c0.7,0.7,1.6,1,2.5,1c0.6,0,1.3-0.2,1.8-0.6l6.9,6.9c0,0,0.1,0,0.1,0.1l7.4,11.1l0.4,0.5c1.1,1.1,2.6,1.7,4.1,1.7   c0.1,0,0.2,0,0.3,0c1.5-0.1,2.8-0.8,3.7-1.9c7.5-9.4,3.9-21.4,3.7-21.9c0,0,0-0.1,0-0.1C79.9,46.8,85.1,32.6,86.9,25   C87.5,22.8,86.9,20.5,85.5,18.6z M31.4,42.5c-1.2,1.1-2.4,2.2-3.6,3.3c-0.2,0.2-0.5,0.5-0.7,0.8l-4.4-2.9   C25.6,42.4,28.8,42.3,31.4,42.5z M58.5,79.5l-2.7-4c0.3-0.2,0.6-0.5,0.9-0.8c1.2-1.3,2.4-2.6,3.6-3.8   C60.4,73.4,60.1,76.6,58.5,79.5z M51.9,69.6c-0.1,0-0.2-0.1-0.4-0.3l-6.7-6.7l5.9-5.9c1.4-1.4,1.4-3.6,0-4.9   c-1.4-1.4-3.6-1.4-4.9,0l-5.9,5.9L33.2,51c-0.1-0.1-0.2-0.3-0.3-0.4C53.5,31,70.8,24.5,79.2,22.4c0.1,0,0.4,0.1,0.6,0.4   c0.2,0.3,0.3,0.5,0.3,0.5C78.1,31.8,71.6,49.1,51.9,69.6z"></path><path fill="#1e8eff" d="M28.4,63.8c-1.4-1.4-3.6-1.4-4.9,0c-1.4,1.4-1.4,3.6,0,4.9L33.7,79c0.7,0.7,1.6,1,2.5,1s1.8-0.3,2.5-1   c1.4-1.4,1.4-3.6,0-4.9L28.4,63.8z"></path><path fill="#1e8eff" d="M24,72.2c-1.4-1.4-3.6-1.4-4.9,0c-1.4,1.4-1.4,3.6,0,4.9l6.2,6.2c0.7,0.7,1.6,1,2.5,1s1.8-0.3,2.5-1   c1.4-1.4,1.4-3.6,0-4.9L24,72.2z"></path></g></svg></g></g></svg>