<svg xmlns="http://www.w3.org/2000/svg" xmlns:xlink="http://www.w3.org/1999/xlink" width="100" height="100" viewBox="0 0 100 100"><g><g transform="translate(50 50) scale(0.69 0.69) rotate(0) translate(-50 -50)" style="fill:#666666"><svg fill="#666666" xmlns:x="http://ns.adobe.com/Extensibility/1.0/" xmlns:i="http://ns.adobe.com/AdobeIllustrator/10.0/" xmlns:graph="http://ns.adobe.com/Graphs/1.0/" xmlns="http://www.w3.org/2000/svg" xmlns:xlink="http://www.w3.org/1999/xlink" version="1.1" x="0px" y="0px" viewBox="-949 951 100 100" style="enable-background:new -949 951 100 100;" xml:space="preserve"><g><g i:extraneous="self"><g><path d="M-910.8,997.1l1.5-0.8l3.1,6.2l5.3-7.8l-10.4-15.7l-15.9-24.3c-0.7-1.1-2.3-1.5-3.4-0.8c-3.4,2-4.8,6.1-3.4,9.7     l11.5,29.4C-920.8,997.7-915.2,999.6-910.8,997.1z"></path><path d="M-891.4,1009.1l-5.7,11.7l11.8,23.8c1.8,3.6,6.2,5,9.7,3l0.6-0.4c3.5-2,4.6-6.6,2.3-9.9L-891.4,1009.1z"></path><path d="M-864,962.1c-1-0.9-2.5-0.6-3.2,0.5c0,0-9,14.9-11.6,19.1c-0.4,0.6-1.2,0.8-1.8,0.5l0,0c-0.6-0.4-0.9-1.2-0.5-1.8     c2.4-4.4,10.7-19.6,10.7-19.6c0.6-1.1,0.1-2.5-1.2-3c-0.9-0.3-1.9,0.1-2.4,0.9l-11.6,19.1c-0.4,0.6-1.2,0.8-1.8,0.5c0,0,0,0,0,0     c-0.6-0.4-0.9-1.2-0.5-1.8c2.4-4.4,10.7-19.6,10.7-19.6c0.6-1.1,0.1-2.5-1.2-3c-0.9-0.3-1.9,0.1-2.4,0.9l-12.3,20.2c0,0,0,0,0,0     l0,0l-1.5,2.7c-1.6,2.7-2.1,5.9-1.4,8.4l1.5,5.4l-30.9,45.7c-2.2,3.4-1.2,7.9,2.3,9.9l0.6,0.4c3.5,2,8,0.7,9.7-3l24.1-49.6     l5.4-1.4c2.6-0.7,5-2.7,6.6-5.4l1.5-2.7l0,0l0,0l11.3-20.7C-863.1,963.8-863.2,962.7-864,962.1z"></path></g></g></g></svg></g></g></svg>