<svg xmlns="http://www.w3.org/2000/svg" xmlns:xlink="http://www.w3.org/1999/xlink" width="100" height="100" viewBox="0 0 100 100"><g><g transform="translate(50 50) scale(0.69 0.69) rotate(0) translate(-50 -50)" style="fill:#ffffff"><svg fill="#ffffff" xmlns="http://www.w3.org/2000/svg" xmlns:xlink="http://www.w3.org/1999/xlink" version="1.1" x="0px" y="0px" viewBox="0 0 64 64" style="enable-background:new 0 0 64 64;" xml:space="preserve"><style type="text/css">
	.st0{fill:#ffffff;}
	.st1{fill:#ffffff;}
</style><g><g><path d="M53,31.2c0,2.5-0.4,4.8-1.1,7l-0.2,0c0,0,0.1-0.3,0.3-0.9c0.2-0.6,0.4-1.4,0.6-2.5c0.2-1.1,0.3-2.5,0.3-4.1    c0-1.6-0.2-3.4-0.7-5.3c-0.1-0.4-0.2-0.8-0.3-1.2c0,0,0,0,0-0.1C52.6,26.4,53,28.8,53,31.2z"></path><ellipse transform="matrix(1 -4.324087e-03 4.324087e-03 1 -0.2154 0.2186)" cx="50.5" cy="49.9" rx="4.3" ry="4.3"></ellipse><ellipse transform="matrix(0.5019 -0.8649 0.8649 0.5019 -30.6137 61.981)" cx="38.5" cy="57.6" rx="3.7" ry="3.7"></ellipse><ellipse transform="matrix(0.8704 -0.4924 0.4924 0.8704 -25.462 19.5187)" cx="24.3" cy="58.1" rx="3.2" ry="3.2"></ellipse><ellipse transform="matrix(1.532746e-02 -0.9999 0.9999 1.532746e-02 -39.7689 63.9644)" cx="12.6" cy="52.2" rx="2" ry="2"></ellipse><path d="M61.6,32.2c0,3-0.4,5.8-1.3,8.6l-8.5-2.5c0.7-2.2,1.1-4.6,1.1-7c0-2.5-0.4-4.8-1.1-7c-1.4-4.4-4.2-8.2-7.7-11    c-0.1-0.1-0.2-0.2-0.3-0.2c-1.6-1.2-3.4-2.2-5.3-3c-1.2-0.5-2.5-0.9-3.9-1.2l-0.5-0.1l-0.5-0.1c-0.3-0.1-0.7-0.1-1-0.2l-0.5-0.1    c-0.2,0-0.3,0-0.5,0l-0.6,0l-0.3,0l-0.1,0l-0.1,0l0,0h0c-2.7-0.1-5.5,0.3-8.1,1.1c-2.6,0.8-5.1,2.1-7.2,3.7    c-2.1,1.6-3.9,3.5-5.3,5.5c-0.4,0.5-0.7,1-1,1.5c-0.2,0.3-0.3,0.5-0.4,0.8c-0.1,0.3-0.3,0.5-0.4,0.8c-0.5,1-0.9,2.1-1.3,3.1    c-0.2,0.5-0.3,1-0.5,1.5c-0.1,0.2-0.1,0.5-0.2,0.7C6.1,27.3,6,27.6,6,27.8c0,0.1-0.1,0.2-0.1,0.4c0,0.1,0,0.2-0.1,0.4    c0,0.2-0.1,0.5-0.1,0.7c-0.1,0.5-0.1,0.9-0.2,1.3c0,0.5-0.1,0.9-0.1,1.4l0,0.1c0,0,0,0,0,0v0l0,0.2c0,0.1,0,0.2,0,0.3    c0,0.2,0,0.4,0,0.6c0,0.8,0,1.5,0.1,2.1c0.1,1.3,0.3,2.3,0.5,2.9c0.1,0.3,0.1,0.6,0.2,0.8c0,0.2,0.1,0.3,0.1,0.3L3.6,40    c0,0,0-0.1-0.1-0.3c-0.1-0.2-0.2-0.5-0.3-0.8c-0.1-0.4-0.3-0.9-0.4-1.5c-0.3-1.6-0.4-3.3-0.4-5.1C2.4,15.9,15.7,2.6,32,2.6    c7.4,0,14.1,2.7,19.3,7.1c2.3,2,4.3,4.2,5.8,6.8C59.9,21.1,61.6,26.5,61.6,32.2z"></path></g><path d="M19.6,31.4c-0.4,1-0.1,2,0.6,2.8c2.3,2.3,3.8,3.9,6.2,6.2c0.3,0.3,0.7,0.5,1,0.6c1.1,0.3,2,0.1,2.8-0.7   c1.9-1.9,4.1-4,6.7-6.6c2.1-2.1,4.6-4.4,6.6-6.4c0.1-0.1,0.1-0.1,0.2-0.2c0.8-0.8,0.9-2.2,0.3-3.1c-0.5-0.8-1.3-1.2-2.2-1.2   c-0.7,0-1.4,0.3-1.9,0.8c-1.7,1.7-3.9,3.8-5.5,5.4l-0.3,0.3c-1.7,1.7-3.7,3.6-5.4,5.3l-0.4,0.4L24,30.6c-0.5-0.5-1.2-0.8-1.9-0.8   c-0.1,0-0.1,0-0.2,0C20.8,29.8,20,30.4,19.6,31.4z"></path></g></svg></g></g></svg>