<svg xmlns="http://www.w3.org/2000/svg" xmlns:xlink="http://www.w3.org/1999/xlink" width="100" height="100" viewBox="0 0 100 100"><g><g transform="translate(50 50) scale(0.69 0.69) rotate(0) translate(-50 -50)" style="fill:#ffffff"><svg fill="#ffffff" xmlns="http://www.w3.org/2000/svg" xmlns:xlink="http://www.w3.org/1999/xlink" version="1.1" x="0px" y="0px" viewBox="0 0 100 100" enable-background="new 0 0 100 100" xml:space="preserve"><path d="M30.333,29.925c-10.555,10.577-10.559,28.546,0.078,39.102l8.43-7.525c-6.929-6.472-7.079-17.038-0.544-23.594  c6.302-6.283,17.093-6.283,23.398,0.003c6.532,6.552,6.382,17.118-0.547,23.59l8.43,7.525C80.217,58.471,80.213,40.5,69.659,29.946  C59.17,19.436,40.843,19.436,30.333,29.925z M55.639,50.537c0-7.8-11.287-7.8-11.287,0V100h11.287V50.537z M15.039,14.24  C-4.829,34.168-4.506,66.863,16.265,85.733l7.855-8.081C7.734,62.964,7.317,37.93,23.018,22.229  c15.009-14.893,38.946-14.893,53.98,0.025c15.676,15.676,15.259,40.71-1.126,55.398l7.855,8.081  c20.744-18.869,21.133-51.565,1.252-71.467C65.797-4.751,34.195-4.751,15.039,14.24z"></path></svg></g></g></svg>