<svg height='100px' width='100px'  fill="#1e8eff" xmlns="http://www.w3.org/2000/svg" xmlns:xlink="http://www.w3.org/1999/xlink" version="1.1" x="0px" y="0px" viewBox="0 0 100 100" enable-background="new 0 0 100 100" xml:space="preserve"><g><polygon points="60.602,31.792 65.729,35.87 68.844,32.334 63.771,28.123  "></polygon><path d="M77.486,8.77H22.514c-7.59,0-13.743,6.153-13.743,13.743v54.973c0,7.59,6.153,13.743,13.743,13.743h54.973   c7.59,0,13.743-6.153,13.743-13.743V22.512C91.229,14.922,85.076,8.77,77.486,8.77z M72.522,33.26L39.783,70.432   c-0.143,0.163-0.315,0.295-0.509,0.393l-9.772,4.914c-0.239,0.121-0.499,0.18-0.757,0.18c-0.366,0-0.729-0.119-1.03-0.351   c-0.513-0.396-0.754-1.051-0.62-1.685l2.289-10.805c0.06-0.278,0.188-0.537,0.374-0.753l32.544-37.659   c0.6-0.695,1.647-0.781,2.353-0.194l7.679,6.377c0.352,0.291,0.568,0.711,0.604,1.166C72.974,32.469,72.823,32.918,72.522,33.26z"></path><polygon points="32.594,64.201 31.121,71.149 37.468,67.958 63.622,38.263 58.517,34.204  "></polygon></g></svg>