<svg xmlns="http://www.w3.org/2000/svg" xmlns:xlink="http://www.w3.org/1999/xlink" width="100" height="100" viewBox="0 0 100 100"><g><g transform="translate(50 50) scale(0.69 0.69) rotate(0) translate(-50 -50)" style="fill:#4D4D4D"><svg fill="#4D4D4D" xmlns:x="http://ns.adobe.com/Extensibility/1.0/" xmlns:i="http://ns.adobe.com/AdobeIllustrator/10.0/" xmlns:graph="http://ns.adobe.com/Graphs/1.0/" xmlns="http://www.w3.org/2000/svg" xmlns:xlink="http://www.w3.org/1999/xlink" version="1.1" x="0px" y="0px" viewBox="0 0 100 100" style="enable-background:new 0 0 100 100;" xml:space="preserve"><g><g i:extraneous="self"><path d="M50,2.5c-20,0-36.2,16.2-36.2,36.2c0,15.7,22.3,44.9,31.9,56.7c2.2,2.7,6.4,2.7,8.6,0c9.6-11.8,31.9-41,31.9-56.7    C86.2,18.7,70,2.5,50,2.5z M50,54.4c-8.7,0-15.7-7-15.7-15.7C34.3,30,41.3,23,50,23c8.7,0,15.7,7,15.7,15.7    C65.7,47.4,58.7,54.4,50,54.4z"></path></g></g></svg></g></g></svg>