<svg xmlns="http://www.w3.org/2000/svg" xmlns:xlink="http://www.w3.org/1999/xlink" width="100" height="100" viewBox="0 0 100 100"><g><g transform="translate(50 50) scale(0.69 0.69) rotate(0) translate(-50 -50)" style="fill:#1e8eff"><svg fill="#1e8eff" xmlns="http://www.w3.org/2000/svg" xmlns:xlink="http://www.w3.org/1999/xlink" version="1.1" x="0px" y="0px" viewBox="0 0 52 52" enable-background="new 0 0 52 52" xml:space="preserve"><g><g><g><polygon points="48,37.5 50,37.5 50,50 37.5,50 37.5,48 48,48    "></polygon><polygon points="4,48 14.5,48 14.5,50 2,50 2,37.5 4,37.5    "></polygon><polygon points="50,2 50,14.5 48,14.5 48,4 37.5,4 37.5,2    "></polygon><polygon points="4,14.5 2,14.5 2,2 14.5,2 14.5,4 4,4    "></polygon><circle cx="26" cy="14.5" r="7"></circle><path d="M26,24.5c9.9299927,0,18,8.0800781,18,18v2H8v-2C8,32.5800781,16.0800171,24.5,26,24.5z"></path></g></g></g></svg></g></g></svg>