<svg xmlns="http://www.w3.org/2000/svg" xmlns:xlink="http://www.w3.org/1999/xlink" width="100" height="100" viewBox="0 0 100 100"><g><g transform="translate(50 50) scale(0.69 0.69) rotate(0) translate(-50 -50)" style="fill:#4D4D4D"><svg fill="#4D4D4D" xmlns="http://www.w3.org/2000/svg" xmlns:xlink="http://www.w3.org/1999/xlink" version="1.1" x="0px" y="0px" viewBox="0 0 100 100" enable-background="new 0 0 100 100" xml:space="preserve"><path d="M60.107,60.742c0.109-0.038,0.217-0.081,0.326-0.12c0.145-0.05,0.244-0.084,0.244-0.084  c0.002-0.002,0.002-0.004,0.002-0.007c8.643-3.203,13.965-10.469,13.965-20.042c0-9.638-4.725-35.655-4.926-36.758L69.495,2.5  h-38.99L30.28,3.731c-0.201,1.103-4.925,27.12-4.925,36.758c0,9.573,5.322,16.839,13.964,20.042  c0.001,0.002,0.001,0.004,0.002,0.007c0,0,0.102,0.034,0.246,0.084c0.108,0.039,0.214,0.082,0.323,0.119  c1.981,0.745,8.609,3.637,8.609,9.008v25.583H36.583c-0.828,0-1.5,0.671-1.5,1.5s0.672,1.5,1.5,1.5h26.834  c0.828,0,1.5-0.671,1.5-1.5s-0.672-1.5-1.5-1.5H51.5V69.75C51.5,64.38,58.124,61.489,60.107,60.742z M29.195,30.223  c1.151-9.431,3.153-20.98,3.816-24.723H66.99c0.616,3.474,2.383,13.669,3.555,22.658c-2.002-0.176-7.722-0.442-14.591,1.244  c-1.92,0.4-3.938,0.983-6.029,1.833C42.408,34.288,32.891,31.529,29.195,30.223z"></path></svg></g></g></svg>