<svg height='100px' width='100px'  fill="#ff1e3a" xmlns:dc="http://purl.org/dc/elements/1.1/" xmlns:cc="http://creativecommons.org/ns#" xmlns:rdf="http://www.w3.org/1999/02/22-rdf-syntax-ns#" xmlns:svg="http://www.w3.org/2000/svg" xmlns="http://www.w3.org/2000/svg" xmlns:sodipodi="http://sodipodi.sourceforge.net/DTD/sodipodi-0.dtd" xmlns:inkscape="http://www.inkscape.org/namespaces/inkscape" version="1.1" x="0px" y="0px" viewBox="0 0 100 100"><g transform="translate(0,-952.36218)"><path style="color:#000000;enable-background:accumulate;" d="m 35.98252,955.36217 c -7.19307,0 -13.19342,6.2412 -13.17469,13.0625 C 19.9059,970.25877 18,973.80727 18,977.36217 l 47.9534,0 c 0,-4.3187 -3.17385,-7.1957 -7.43028,-8.125 0.15195,-0.6213 0.24976,-1.2723 0.24976,-1.9375 0,-4.7091 -4.02552,-8.5313 -8.99127,-8.5313 -1.39058,0 -2.72709,0.3094 -3.90245,0.8438 -2.41694,-2.6108 -5.94519,-4.25 -9.89664,-4.25 z m 27.97282,24 -43.95728,0.031 C 18.99903,979.34917 18,980.24229 18,981.34919 l 0,6.0128 47.9534,0 0,-6.0128 c 0,-1.107 -0.99903,-2.00002 -1.99806,-1.98722 z M 18,991.36219 c 4e-5,15.95501 4e-5,30.99401 0,48.00001 l 47.9534,0 0,-2.1562 c 4.99514,-0.8566 9.59812,-3.4181 11.70727,-6.9686 5.48276,-8.9975 4.20975,-23.0846 4.21466,-32.87501 -1.93552,-5.013 -5.17271,-5.9754 -9.2098,-6 -2.36209,0 -4.70861,0.4118 -6.71223,1.0312 l 0,-1.0312 z m 54.66563,4 c 2.0943,0.05 4.45246,0.5479 5.21368,2.4375 0.0118,10.07481 0.58749,23.58261 -3.71514,30.50001 -2.1323,2.7073 -5.44295,4.3756 -8.21077,4.875 -2e-5,-12.4352 -1e-5,-24.3036 0,-36.50001 1.7878,-0.6786 4.42365,-1.3143 6.71223,-1.3125 z M 18,1043.3622 l 0,6 47.9534,-0.062 0,-5.9375 z" fill="#ff1e3a" stroke="none" marker="none" visibility="visible" display="inline" overflow="visible"></path></g></svg>