<svg height='100px' width='100px'  fill="#4d4d4d" xmlns="http://www.w3.org/2000/svg" xmlns:xlink="http://www.w3.org/1999/xlink" version="1.1" x="0px" y="0px" viewBox="0 0 64 64" style="enable-background:new 0 0 64 64;" xml:space="preserve"><style type="text/css">
	.st0{fill:none;}
</style><g><g><path d="M19.7,56.9c2.1,1,4.1,1.7,6.2,2.2v2.5c-4.5-0.7-9-2.5-12.9-5.4c-1.4-1.1-2.7-2.2-3.9-3.5l2.3-2.3    C13.6,53.1,16.4,55.3,19.7,56.9z"></path><path d="M8.6,46.4L8.6,46.4L6.1,49c-3.7-5.6-5.4-12.2-4.9-18.9h4.2C4.7,35.8,5.9,41.5,8.6,46.4z"></path><path d="M12.1,9l3.8,3.8C12,15.5,8.8,19.3,7,23.9c-0.2,0.5-0.4,1-0.5,1.5H1.9c0.9-3.7,2.5-7.4,4.9-10.7C8.3,12.5,10.1,10.6,12.1,9    z"></path><path d="M46.5,6l-0.3,0.3c-1.3,1.2-3.3,3.2-4.6,4.4l-3.7-1.3c-5.8-2.2-12.2-1.6-17.7,0.8l-4.1-4.1C25.5,0.9,37.6,0.4,46.5,6z"></path><path d="M50.7,52.9c-4.7,6-12.2,9.1-20,9.1v-2.2c6.1,0.3,11.9-1.6,17.6-5.7c0.7-0.5,1.4-1,2.1-1.4C50.4,52.7,50.6,52.8,50.7,52.9z    "></path><path d="M62.9,32.5c-2.7,0.2-5.3,0.3-8.2,0.5c-0.4-6.4-2.3-11.7-5.8-16.6l-0.8-0.8c0.7-1.7,1.9-4.3,2.7-6l0.3-0.6    C58.8,15.4,62.1,23,62.9,32.5z"></path></g><path d="M47.3,10.4c0,0-10.1,22.6-10.2,22.7c-0.7,2.1-2.7,3.6-5,3.6c-3,0-5.4-2.4-5.4-5.4c0-1.7,0.8-3.2,2.1-4.2c0,0,0,0,0,0   L46.6,9.9C46.9,9.6,47.5,10,47.3,10.4z"></path></g></svg>