<svg height='100px' width='100px'  fill="#48bf91" xmlns="http://www.w3.org/2000/svg" xmlns:xlink="http://www.w3.org/1999/xlink" version="1.1" x="0px" y="0px" viewBox="0 0 1024 1024" style="enable-background:new 0 0 1024 1024;" xml:space="preserve"><g><g><g><path d="M795.9,89.6c-3.5,34.6-7,69.2-10.5,103.8c-2.9,28.5-5.8,57.1-8.7,85.6c-1.8,17.4-3.5,34.8-5.3,52.3     c-3.8,38-7.7,76-11.5,114c-4.9,48.2-9.8,96.5-14.6,144.7c-4.9,48.6-9.8,97.2-14.8,145.9c-3.9,38.7-7.8,77.3-11.7,116     c-1.9,18.5-3.8,37-5.6,55.5c0,0.4-0.1,0.8-0.1,1.2c0.2-4.3,0-1.8-0.4,0.2c-0.8,4.2,1.6-2.6,0.3-0.4c-0.6,0.9-1.1,2-1.7,2.9     c-1.5,2.8,0.6-1.2,0.7-0.9c0.1,0.1-2.7,2.9-2.8,2.8c0.2,0.1,3.8-2.4,0.3-0.4c-0.4,0.2-2.6,1.8-2.9,1.6c-0.3-0.2,5-1.5,1-0.6     c0.2,0-2.6,0.7-2.6,0.7c0,0.1,4.8-0.3,0.5-0.2c-0.4,0-0.5,0-0.7,0c-0.1,0-0.1,0-0.2,0c-0.7,0-1.4,0-2.1,0c-9.8,0-19.6,0-29.4,0     c-41.6,0-83.2,0-124.8,0c-48.3,0-96.7,0-145,0c-27.4,0-54.8,0.1-82.1,0c-0.6,0-1.1,0-1.7,0c0,0,0,0-0.1,0c-0.5,0-0.9,0-1.4,0     c-1.8-0.2-1.9-0.1-0.1,0c0.4,0.1,0.9,0.1,1.3,0.2c-0.9-0.2-1.8-0.4-2.6-0.7c-2.1-0.4-0.9-1.5,1,0.6c-0.4-0.4-1.8-0.9-2.4-1.3     c-0.4-0.2-0.8-0.5-1.1-0.7c-1.8-1.2-1.5-1,0.9,0.7c-0.3,0.1-2.8-2.8-2.8-2.8c0.1-0.2,2.7,4.3,0.7,0.8c-0.4-0.8-0.9-1.6-1.4-2.3     c-2.3-3.6,0.7,3,0.2,0.4c-0.1-0.4-1.1-3.2-0.9-3.3c0.1-0.1,0.3,3.3,0.3,2.4c0-0.5-0.1-0.9-0.1-1.4c-0.6-6.3-1.3-12.7-1.9-19     c-3.1-30.2-6.1-60.4-9.2-90.7c-4.6-45.1-9.1-90.2-13.7-135.3c-5-49.6-10-99.2-15.1-148.8c-4.5-44.4-9-88.8-13.5-133.2     c-2.9-28.5-5.8-57-8.6-85.4c-1.3-12.7-2.6-25.4-3.9-38.1c-4.6-45.4-9.2-90.7-13.8-136.1c-1-10.3-2.1-20.5-3.1-30.8     c-6.7,6.7-13.3,13.3-20,20c20.1,0,40.3,0,60.4,0c48.4,0,96.7,0,145.1,0c58.5,0,117.1,0,175.6,0c50.6,0,101.2,0,151.8,0     c24.6,0,49.2,0.5,73.8,0c0.3,0,0.7,0,1,0c10.5,0,20.5-9.2,20-20c-0.5-10.8-8.8-20-20-20c-20.1,0-40.3,0-60.4,0     c-48.4,0-96.7,0-145.1,0c-58.5,0-117.1,0-175.6,0c-50.6,0-101.2,0-151.8,0c-24.6,0-49.2-0.5-73.8,0c-0.3,0-0.7,0-1,0     c-10,0-21.1,9.2-20,20c3.5,34.9,7.1,69.9,10.6,104.8c2.9,28.3,5.7,56.5,8.6,84.8c1.8,18,3.7,36.1,5.5,54.1     c3.9,38.7,7.8,77.3,11.7,116c4.9,48.9,9.9,97.8,14.8,146.6c4.9,48.7,9.9,97.4,14.8,146.1c3.9,38.1,7.7,76.3,11.6,114.4     c1.7,17.2,3.3,34.4,5.2,51.6c1.8,16.2,9,29.9,22.9,39c8.1,5.3,17.9,7.3,27.4,7.4c9.5,0,19.1,0,28.6,0c42,0,84,0,125.9,0     c48.5,0,97,0,145.5,0c27.3,0,54.7,0.1,82,0c12.4-0.1,23.7-4,33.2-12c10.5-8.8,15.2-21.2,16.7-34.5c0.6-5.6,1.1-11.2,1.7-16.8     c3-29.3,5.9-58.7,8.9-88c4.5-44.9,9.1-89.8,13.6-134.8c5.1-50.1,10.1-100.2,15.2-150.3c4.6-45,9.1-90,13.7-135.1     c2.9-29.2,5.9-58.3,8.8-87.5c1.3-12.7,2.6-25.4,3.9-38.2c4.6-45.4,9.2-90.8,13.8-136.2c1.1-10.5,2.1-21,3.2-31.6     c1.1-10.4-10-20.4-20-20C804.2,70.1,797,78.4,795.9,89.6z"></path></g></g><g><g><path d="M776.8,278.6c-1,9.7-2,19.4-2.9,29.1c-2.6,25.4-5.1,50.9-7.7,76.3c-3.6,35.8-7.2,71.6-10.9,107.4     c-4.1,40.4-8.2,80.7-12.2,121.1c-4,39.5-8,79-12,118.5c-3.4,33.1-6.7,66.3-10.1,99.4c-2.1,21.2-4.3,42.5-6.4,63.7     c-0.4,4.4-0.9,8.9-1.3,13.3c0,0.3-0.1,0.7-0.1,1c0,0.1,0,0.1,0,0.2c0.1-2.1,0.6-3.4-0.2-0.5c-0.1,0.4-0.7,1.6-0.6,2     c1.1-2.5,1.3-3,0.7-1.7c-0.2,0.4-0.4,0.8-0.6,1.2c-0.4,0.8-1,1.5-1.4,2.3c-1.2,2.1,2.7-2,0.6-0.9c-0.4,0.2-1.1,1.1-1.4,1.4     c-2.7,3,1-1,1-0.6c0,0.3-4.3,2.9-4.6,2.7c-0.3-0.2,4-1.3,1.7-0.8c-0.2,0-3.2,1-3.3,0.9c-0.2-0.4,4.5-0.2,1.2-0.2     c-0.2,0-1.3,0-1.4,0c0,0,0,0-0.1,0c-0.2,0-0.3,0-0.5,0c-17.7,0.3-35.5,0-53.3,0c-36.4,0-72.7,0-109.1,0c-40,0-80,0-120,0     c-28.7,0-57.5,0-86.2,0c-5.3,0-10.7,0.1-16,0c-0.1,0-0.2,0-0.3,0c-0.2,0-0.4,0-0.7,0c-0.2,0-0.5,0-0.7,0     c-1.8-0.2-1.9-0.1-0.1,0.1c1.7,0.3,1.7,0.2,0-0.1c-0.4-0.1-0.9-0.2-1.3-0.4c-3.2-0.6,1.6,0.2,1,0.6c-0.2,0.1-2.5-1.3-2.4-1.2     c-0.5-0.3-1.1-0.9-1.7-1.1c-2.1-0.8,2,2.6,0.9,0.7c-0.2-0.4-1-1-1.4-1.4c-3-2.6,0.9,1,0.6,1c-0.2,0-1.3-1.9-1.5-2.2     c-0.5-0.8-1.3-4-0.8-1.2c0.7,3.5-0.5-2.9-0.6-2.8c10-6.1,0.3,3.5,0.3,2.5c0-0.1,0-0.2,0-0.2c0-0.4-0.1-0.8-0.1-1.2     c-1.3-13.6-2.7-27.1-4.1-40.6c-2.8-28.1-5.7-56.2-8.5-84.3c-3.8-37.1-7.5-74.3-11.3-111.4c-4.1-40.6-8.2-81.3-12.3-121.9     c-3.9-38.6-7.8-77.2-11.7-115.9c-3.1-31.1-6.3-62.2-9.4-93.3c-1.8-18-3.7-36.1-5.5-54.1c-0.2-2.4-0.5-4.8-0.7-7.2     c-6.7,6.7-13.3,13.3-20,20c18.9,0,37.8,0,56.7,0c45.4,0,90.8,0,136.2,0c54.9,0,109.8,0,164.7,0c47.4,0,94.8,0,142.3,0     c22.9,0,45.9,0.6,68.9,0c0.3,0,0.6,0,1,0c10.5,0,20.5-9.2,20-20c-0.5-10.8-8.8-20-20-20c-18.9,0-37.8,0-56.7,0     c-45.4,0-90.8,0-136.2,0c-54.9,0-109.8,0-164.7,0c-47.4,0-94.8,0-142.3,0c-22.9,0-45.9-0.6-68.9,0c-0.3,0-0.6,0-1,0     c-10,0-21.1,9.2-20,20c1,9.9,2,19.9,3,29.8c2.6,25.9,5.2,51.7,7.8,77.6c3.7,36.1,7.3,72.2,11,108.4c4.1,40.9,8.3,81.8,12.4,122.7     c4,39.8,8.1,79.6,12.1,119.5c3.3,32.9,6.7,65.8,10,98.7c2.1,20.5,4.2,41,6.2,61.5c0.4,3.8,0.7,7.7,1.2,11.5     c1.3,11.6,5,21.7,12.8,30.6c9,10.2,22.5,15.3,35.9,15.6c17.5,0.3,34.9,0,52.4,0c36.7,0,73.4,0,110.1,0c40.3,0,80.6,0,120.9,0     c28.7,0,57.4,0,86.2,0c5.1,0,10.2,0.1,15.3,0c16.3-0.3,30.8-7.9,40.2-21.2c5.3-7.6,7.5-16,8.5-25.1c1.4-12.4,2.5-24.9,3.8-37.3     c2.8-27.7,5.6-55.4,8.4-83.2c3.8-37.3,7.5-74.5,11.3-111.8c4.1-40.9,8.3-81.9,12.4-122.8c4-39.1,7.9-78.1,11.9-117.2     c3.2-31.7,6.4-63.3,9.6-95c1.9-18.3,3.7-36.6,5.6-54.9c0.2-2.4,0.5-4.9,0.7-7.3c1.1-10.4-10-20.5-20-20     C785.1,259.2,777.9,267.4,776.8,278.6z"></path></g></g><g><g><path d="M616.4,645.2c0,3-0.1,6.1-0.3,9.1c-0.1,1.6-0.3,3.2-0.4,4.8c-0.1,0.6-0.3,3,0,0.1     c0.4-3.4-0.2,1.1-0.2,1.4c-1,6-2.5,11.9-4.3,17.7c-0.4,1.2-1.8,7.6-3,8.2c0.1,0,2-4.6,0.5-1.1c-0.3,0.6-0.5,1.2-0.8,1.8     c-0.7,1.6-1.5,3.2-2.3,4.8c-2.7,5.3-5.8,10.3-9.2,15.2c-0.6,0.8-3.5,4.3-1.6,2.2c2-2.2-0.8,1-1.3,1.5c-2.1,2.5-4.3,4.9-6.6,7.3     c-2,2-4,4-6.2,5.9c-1.1,1-2.3,2-3.5,3c-0.5,0.4-1,0.8-1.5,1.2c-1.9,1.8,3.1-2.2,0.9-0.7c-5.1,3.4-10,7-15.5,9.9     c-2.5,1.4-5.1,2.6-7.7,3.8c-0.6,0.3-1.2,0.5-1.8,0.8c-2,1,1.7-0.8,1.7-0.7c-0.3,0.7-4.2,1.6-5,1.9c-5.9,2.1-12,3.8-18.2,4.9     c-1.3,0.3-2.7,0.5-4,0.7c-3.6,0.6,3.9-0.4-0.8,0.1c-3.2,0.3-6.5,0.6-9.7,0.6c-3,0.1-6.1,0.1-9.1-0.1c-1.6-0.1-3.2-0.2-4.9-0.3     c-1-0.1-6.7-0.7-3.5-0.3c3.1,0.3-1.3-0.2-2.1-0.4c-1.6-0.3-3.1-0.6-4.7-0.9c-3.1-0.7-6.1-1.4-9.2-2.3c-3-0.9-6-1.9-8.9-3     c-0.6-0.2-1.2-0.5-1.9-0.7c-2.2-0.7,1.8,0.8,1.7,0.7c-1.4,0-3.6-1.6-4.8-2.2c-5.3-2.6-10.5-5.5-15.4-8.8     c-1.3-0.9-2.5-1.7-3.8-2.6c-0.5-0.4-1-0.8-1.6-1.2c-1.8-1.3,1.5,1.1,1.5,1.1c-1.6,0.1-6.3-5.3-7.4-6.4c-4.3-4-8.2-8.4-12.1-12.9     c-2.3-2.7,2.2,3.1-0.5-0.6c-0.9-1.2-1.8-2.5-2.7-3.7c-1.7-2.5-3.4-5.1-4.9-7.8c-1.4-2.5-2.8-5-4-7.6c-0.7-1.4-1.3-2.8-2-4.2     c-0.3-0.8-0.6-2.5,0-0.1c0.6,2.7,0,0-0.2-0.7c-2.2-5.9-4.1-11.8-5.4-18c-0.6-2.9-0.8-5.9-1.6-8.7c0,0,0.5,4.2,0.3,1.9     c-0.1-0.9-0.2-1.8-0.3-2.7c-0.2-1.6-0.3-3.2-0.4-4.8c-0.3-4.6-0.2-9.1,0.2-13.7c0.3-3.3-0.1,1-0.3,2.2c0.2-0.9,0.3-1.9,0.4-2.8     c0.3-1.9,0.7-3.8,1.2-5.7c2-8.3,4.9-16.3,8-24.3c1.2-3-2,4.5-0.2,0.6c0.5-1.1,1-2.2,1.5-3.3c1-2.2,2-4.5,3.1-6.7     c2.1-4.4,4.3-8.8,6.6-13.1c4.9-9.2,10.2-18.3,15.6-27.2c11-17.9,22.9-35.3,35.2-52.2c5.6-7.8,11.4-15.5,17.2-23.1     c0.6-0.8,1.2-1.5,1.7-2.3c2-2.5-3.2,4.2-0.6,0.8c1.3-1.6,2.5-3.3,3.8-4.9c2.3-2.9,4.5-5.8,6.8-8.6c5.7-7.1,11.7-14,17.3-21.1     c0.3-0.3,0.5-0.6,0.8-0.9c-9.4,0-18.9,0-28.3,0c4.1,4.8,8.2,9.7,12.2,14.7c4.4,5.4,8.7,10.9,13,16.3c1.3,1.6,2.6,3.3,3.8,4.9     c2,2.6-2.9-3.7-0.9-1.1c0.8,1,1.5,2,2.3,3c2.8,3.7,5.7,7.4,8.4,11.2c24.7,33.1,48.6,67.7,66.3,105.2c1.1,2.4,2.2,4.7,3.3,7.1     c0.3,0.6,0.5,1.3,0.8,1.9c1.1,2.5-0.7-1.6-0.8-2c0.5,1.2,1,2.5,1.5,3.7c1.8,4.6,3.4,9.2,4.9,13.9c1.3,4.3,2.4,8.6,3.2,13     c0.2,1.1,0.3,2.1,0.5,3.2c0.1,0.6-0.5-5.4-0.5-3.4c0,0.6,0.1,1.3,0.2,1.9C616.3,641.3,616.4,643.2,616.4,645.2     c0.1,10.5,9.2,20.5,20,20c10.8-0.5,20.1-8.8,20-20c-0.1-19.6-6.9-38.2-14.5-56c-8.2-19.2-18.6-37.5-29.7-55.2     c-21.2-34-45.2-66.2-70.3-97.4c-5.2-6.5-10.4-12.9-15.8-19.2c-6.7-7.8-21.6-7.8-28.3,0c-16.5,19.2-32,39.3-47,59.6     c-25.7,34.6-50.9,71-68.1,110.7c-7.9,18.1-15,37.3-15.1,57.4c-0.1,28.5,8.7,57.6,24.9,81c17,24.4,40,42.6,67.6,53.7     c26.8,10.8,57.2,12.3,85.3,5.8c55.2-12.7,100.5-60.3,108.9-116.5c1.2-8,2.1-15.9,2.1-24c0.1-10.5-9.2-20.5-20-20     C625.5,625.7,616.5,634,616.4,645.2z"></path></g></g></g></svg>