<svg xmlns="http://www.w3.org/2000/svg" xmlns:xlink="http://www.w3.org/1999/xlink" width="100" height="100" viewBox="0 0 100 100"><g><g transform="translate(50 50) scale(0.69 0.69) rotate(0) translate(-50 -50)" style="fill:#1e8eff"><svg fill="#1e8eff" xmlns="http://www.w3.org/2000/svg" data-name="Layer 1" viewBox="0 0 100 100" x="0px" y="0px"><title>100all</title><path d="M97.53,52l.26,0L88,33.46a14.59,14.59,0,0,0-7.55-6.38,14.11,14.11,0,0,0-26.06.2,9.67,9.67,0,0,0-8.69,0,14.1,14.1,0,0,0-26.13,0,14.55,14.55,0,0,0-7.12,6.25L4.82,47.45A21.84,21.84,0,1,0,44.66,61.74a20.55,20.55,0,0,0,.1-2.07,22.13,22.13,0,0,0-.43-4.37h0a21.58,21.58,0,0,0-.75-2.65,7.14,7.14,0,0,1,12.84,0,21.71,21.71,0,0,0-.75,2.66,22.13,22.13,0,0,0-.43,4.37,20.33,20.33,0,0,0,.1,2A21.84,21.84,0,1,0,97.53,52ZM39.68,61.26A16.85,16.85,0,1,1,22.91,42.83l.92,0A16.88,16.88,0,0,1,38.58,53.48h0a16.18,16.18,0,0,1,.85,2.82,17.12,17.12,0,0,1,.33,3.37A15.59,15.59,0,0,1,39.68,61.26Zm37.4,15.26A16.76,16.76,0,0,1,60.31,61.23a15.37,15.37,0,0,1-.08-1.56,17.1,17.1,0,0,1,.33-3.37,16.3,16.3,0,0,1,.86-2.85A16.88,16.88,0,0,1,76.12,42.85l1,0a16.91,16.91,0,0,1,14.59,8.43h0A16.84,16.84,0,0,1,77.09,76.52Z"></path><path d="M87.81,49.6h-.06A14.6,14.6,0,0,0,77.09,45,14.77,14.77,0,0,0,63,55.46a14.33,14.33,0,0,0-.62,4.21,14.7,14.7,0,1,0,26.18-9.14ZM77.09,69.32a9.68,9.68,0,0,1-9.7-9.65,9.36,9.36,0,0,1,.41-2.76A9.74,9.74,0,0,1,77.09,50a9.63,9.63,0,0,1,7.57,3.63l.24.3a9.47,9.47,0,0,1,1.89,5.72A9.68,9.68,0,0,1,77.09,69.32Z"></path><path d="M22.91,45a14.65,14.65,0,1,0,14.7,14.65A14.27,14.27,0,0,0,37,55.48,14.77,14.77,0,0,0,22.91,45Zm0,24.3a9.68,9.68,0,0,1-9.7-9.65,9.47,9.47,0,0,1,2.14-6A9.64,9.64,0,0,1,22.91,50a9.74,9.74,0,0,1,9.3,6.91,9.32,9.32,0,0,1,.4,2.74A9.69,9.69,0,0,1,22.91,69.32Z"></path></svg></g></g></svg>